<svg width="376" height="409" xmlns="http://www.w3.org/2000/svg" xmlns:xlink="http://www.w3.org/1999/xlink" overflow="hidden"><defs><clipPath id="clip0"><rect x="221" y="98" width="376" height="409"/></clipPath></defs><g clip-path="url(#clip0)" transform="translate(-221 -98)"><path d="M310.552 119.754C326.601 110.488 347.122 115.987 356.387 132.035L427.977 256.032C437.242 272.08 431.744 292.601 415.695 301.867L415.695 301.866C399.647 311.132 379.126 305.633 369.86 289.585L298.271 165.589C289.006 149.54 294.504 129.019 310.553 119.754Z" fill="#FFFFFF" fill-rule="evenodd"/><path d="M553.5 98.9999C572.002 98.9999 587 113.998 587 132.5L587 381.5C587 400.002 572.002 415 553.5 415L553.5 415C534.998 415 520 400.001 520 381.5L520 132.5C520 113.998 534.999 98.9999 553.5 98.9999Z" fill="#FFFFFF" fill-rule="evenodd"/><path d="M268.5 329C287.002 329 302 343.998 302 362.5L302 472.5C302 491.002 287.002 506 268.5 506L268.5 506C249.998 506 235 491.002 235 472.5L235 362.5C235 343.998 249.998 329 268.5 329Z" fill="#FFFFFF" fill-rule="evenodd"/><path d="M242 472.5C242 453.998 256.998 439 275.5 439L562.5 439C581.002 439 596 453.998 596 472.5L596 472.5C596 491.002 581.002 506 562.5 506L275.5 506C256.998 506 242 491.002 242 472.5Z" fill="#FFFFFF" fill-rule="evenodd"/><path d="M0 33.5535C-6.68608e-15 15.0224 15.0224 0 33.5535 0L176.514 0C195.045-6.68608e-15 210.067 15.0224 210.067 33.5535L210.067 33.5535C210.067 52.0846 195.044 67.107 176.513 67.107L33.5535 67.1068C15.0224 67.1068 0 52.0844 0 33.5533Z" fill="#FFFFFF" fill-rule="evenodd" transform="matrix(-0.5 0.866025 0.866025 0.5 314.684 102.977)"/><path d="M474 239C455.222 239 440 223.778 440 205L440 205C440 186.222 455.222 171 474 171L538 171C556.778 171 572 186.222 572 205L572 205C572 223.778 556.778 239 538 239Z" fill="#FFFFFF" fill-rule="evenodd"/><path d="M475.5 338C456.998 338 442 323.002 442 304.5L442 304.5C442 285.998 456.998 271 475.5 271L540.5 271C559.002 271 574 285.999 574 304.5L574 304.5C574 323.002 559.001 338 540.5 338Z" fill="#FFFFFF" fill-rule="evenodd"/></g></svg>